<svg xmlns="http://www.w3.org/2000/svg" viewBox="0 0 286 894" preserveAspectRatio="xMidYMid meet">
  <!-- Buku besar -->
  <rect x="40" y="80" width="200" height="280" rx="12" fill="#4caf50"/>
  <rect x="40" y="80" width="18" height="280" rx="4" fill="#2f5d34"/>
  <rect x="70" y="110" width="140" height="12" rx="4" fill="#ffffff" fill-opacity="0.8"/>
  <rect x="70" y="132" width="100" height="8" rx="4" fill="#ffffff" fill-opacity="0.5"/>
  <rect x="70" y="150" width="120" height="8" rx="4" fill="#ffffff" fill-opacity="0.5"/>
  <rect x="70" y="168" width="90" height="8" rx="4" fill="#ffffff" fill-opacity="0.5"/>
  <!-- Buku kecil 1 -->
  <rect x="60" y="400" width="160" height="220" rx="10" fill="#ff8a65"/>
  <rect x="60" y="400" width="16" height="220" rx="4" fill="#e64a19"/>
  <rect x="86" y="425" width="110" height="10" rx="4" fill="#ffffff" fill-opacity="0.8"/>
  <rect x="86" y="445" width="80" height="7" rx="4" fill="#ffffff" fill-opacity="0.5"/>
  <rect x="86" y="460" width="95" height="7" rx="4" fill="#ffffff" fill-opacity="0.5"/>
  <!-- Buku kecil 2 -->
  <rect x="50" y="660" width="180" height="180" rx="10" fill="#42a5f5"/>
  <rect x="50" y="660" width="16" height="180" rx="4" fill="#1565c0"/>
  <rect x="76" y="685" width="120" height="10" rx="4" fill="#ffffff" fill-opacity="0.8"/>
  <rect x="76" y="705" width="90" height="7" rx="4" fill="#ffffff" fill-opacity="0.5"/>
  <!-- Bintang dekorasi -->
  <circle cx="220" cy="50" r="12" fill="#ffd54f"/>
  <circle cx="260" cy="120" r="7" fill="#ffd54f" fill-opacity="0.6"/>
  <circle cx="30" cy="500" r="9" fill="#ce93d8" fill-opacity="0.7"/>
</svg>
